<?xml version="1.0" standalone="no"?>
<!DOCTYPE svg PUBLIC "-//W3C//DTD SVG 20010904//EN"
 "http://www.w3.org/TR/2001/REC-SVG-20010904/DTD/svg10.dtd">
<svg version="1.0" xmlns="http://www.w3.org/2000/svg"
 width="494.000000pt" height="438.000000pt" viewBox="0 0 494.000000 438.000000"
 preserveAspectRatio="xMidYMid meet">
<metadata>
Created by potrace 1.16, written by Peter Selinger 2001-2019
</metadata>
<g transform="translate(0.000000,438.000000) scale(0.100000,-0.100000)"
fill="#fff" stroke="none">
<path d="M4240 3929 c-65 -9 -151 -52 -359 -178 -80 -49 -168 -96 -196 -106
-27 -10 -80 -29 -118 -42 l-67 -25 -34 -71 c-19 -40 -51 -108 -71 -152 -20
-44 -40 -87 -44 -95 -5 -8 -31 -57 -57 -109 -27 -51 -58 -99 -69 -107 -25 -16
-279 -12 -337 6 -41 12 -52 42 -22 54 38 15 2 15 -72 0 -108 -22 -184 -28
-184 -16 0 6 23 29 51 51 l52 41 -40 0 c-56 0 -96 -16 -184 -72 -68 -43 -99
-57 -99 -44 0 2 11 27 25 54 28 55 41 130 27 150 -7 10 -30 -8 -90 -69 -45
-46 -85 -80 -88 -76 -4 4 7 34 24 67 16 33 26 62 22 65 -4 2 -13 25 -20 50
-13 48 -33 55 -38 14 -2 -13 -10 -32 -18 -43 -8 -11 -14 -27 -14 -35 0 -19
-81 -181 -91 -181 -18 0 -48 87 -49 142 0 28 -23 58 -43 58 -9 0 -11 -49 -6
-198 3 -110 9 -204 13 -210 4 -7 15 -12 24 -12 22 0 105 -32 113 -43 4 -5 15
-4 27 2 38 20 86 11 205 -37 16 -7 32 -12 37 -12 4 0 25 -9 47 -19 21 -11 54
-27 73 -35 19 -8 58 -24 85 -36 80 -34 95 -43 95 -55 0 -7 -22 -38 -50 -69
-27 -31 -50 -60 -50 -63 0 -4 15 -29 33 -57 30 -48 32 -56 36 -163 2 -62 7
-113 11 -113 8 0 87 110 111 155 19 36 91 77 165 95 63 15 78 12 254 -58 63
-25 131 -51 150 -58 27 -9 36 -19 42 -46 8 -39 -6 -100 -27 -118 -25 -21 -45
-71 -45 -114 0 -40 2 -43 56 -74 51 -29 55 -30 49 -11 -5 14 -2 25 6 30 10 6
4 9 -18 9 -34 0 -53 21 -53 60 0 26 60 54 99 47 37 -7 95 -30 103 -42 5 -6 8
-5 8 2 0 25 -43 54 -112 77 -18 5 -25 57 -12 90 9 25 41 19 48 -8 3 -13 17
-31 31 -40 24 -16 25 -16 15 10 -13 33 -13 34 7 34 14 0 14 3 -4 23 -46 51
-36 67 45 67 55 0 41 15 -23 25 -73 12 -75 13 -75 55 0 35 3 39 35 50 21 7 55
9 85 5 51 -7 197 12 206 26 3 5 31 9 62 9 55 0 58 2 84 39 24 34 35 40 78 46
55 8 100 37 100 65 0 12 18 28 52 47 37 20 58 39 70 64 10 21 35 47 62 64 34
21 49 38 56 65 17 61 7 67 -37 20 -20 -21 -44 -33 -83 -41 -74 -15 -160 -34
-245 -53 -143 -33 -161 -37 -206 -43 -42 -5 -48 -3 -68 23 -20 25 -21 30 -7
40 16 11 0 19 -196 97 -16 6 -28 16 -28 22 0 6 23 24 50 40 28 16 50 33 50 38
0 5 26 34 58 66 44 43 60 68 70 106 8 28 20 70 27 95 7 25 16 68 20 95 12 96
16 108 38 125 36 29 77 69 77 75 0 15 75 85 160 148 109 81 265 232 255 247
-7 11 -55 11 -135 -1z"/>
<path d="M2315 1751 c-33 -10 -80 -27 -105 -38 -25 -12 -69 -24 -99 -27 -69
-9 -95 -23 -151 -81 -59 -62 -82 -72 -170 -80 -92 -8 -256 -41 -329 -66 -30
-11 -73 -19 -95 -19 -71 0 -111 -17 -140 -58 -47 -68 -89 -100 -198 -147 -115
-50 -193 -99 -183 -115 13 -21 -98 -97 -232 -160 -48 -23 -103 -49 -122 -58
-39 -20 -75 -62 -63 -74 4 -4 68 6 142 22 157 35 156 35 140 15 -7 -8 -18 -15
-25 -15 -7 0 -18 -7 -26 -16 -7 -8 -30 -24 -51 -35 -21 -11 -55 -35 -76 -54
-30 -29 -33 -35 -17 -35 11 1 31 7 45 15 14 8 30 14 35 14 6 0 -35 -23 -91
-52 -101 -52 -174 -102 -174 -118 0 -5 16 -9 35 -9 28 0 35 -4 35 -20 0 -16 7
-20 30 -20 17 0 30 -5 30 -11 0 -6 7 -8 16 -5 12 4 15 2 10 -9 -4 -12 1 -12
32 4 20 10 42 16 48 14 6 -2 35 13 65 33 66 45 117 71 239 124 114 50 230 91
241 84 4 -2 10 0 14 6 3 5 16 15 28 22 20 10 21 10 8 -6 -13 -16 -12 -17 15
-11 16 4 35 8 41 10 8 3 15 -10 19 -36 6 -37 9 -40 33 -35 34 8 55 -7 49 -32
-5 -17 -1 -20 21 -19 20 2 27 -3 29 -21 3 -21 7 -22 47 -16 43 6 46 4 99 -46
31 -29 53 -57 50 -62 -4 -6 -28 -7 -60 -3 -45 5 -56 3 -73 -14 -12 -12 -21
-26 -21 -33 0 -6 9 -2 20 10 24 26 38 28 47 6 5 -13 19 -14 87 -9 58 5 77 3
66 -4 -8 -6 -32 -11 -53 -11 -46 0 -77 -15 -77 -37 0 -15 2 -15 18 0 23 21 42
22 42 2 0 -19 11 -19 80 1 30 8 85 15 122 14 37 -1 69 4 73 9 3 6 14 11 24 11
11 0 19 6 18 13 -1 37 4 47 26 47 17 0 19 2 8 9 -9 6 -24 6 -38 0 -32 -12 -52
-11 -33 1 11 7 -3 10 -47 10 -52 0 -64 3 -73 20 -9 17 -7 22 12 30 23 9 23 9
-4 9 -19 1 -33 -8 -48 -29 l-22 -30 -54 46 c-59 51 -66 75 -40 138 17 40 70
115 94 131 29 21 144 84 212 117 83 41 163 122 215 218 22 41 59 95 82 120 22
25 55 75 73 112 21 44 40 69 54 73 11 4 37 12 56 20 19 8 61 17 93 20 31 4 57
10 57 14 0 15 -77 32 -172 38 -54 3 -98 9 -98 13 0 25 144 122 209 141 39 12
41 14 25 26 -24 18 -76 15 -149 -6z"/>
</g>
</svg>
